# xmcd
#
# Track frame offsets:
#	150
#	23432
#	48965
#	76487
#	102322
#	128817
#	151115
#	179450
#	212307
#	244080
#	268670
#	295825
#
# Disc length: 4321 seconds
#
# Revision: 1
# Processed by: cddbd v1.5.2PL0 Copyright (c) Steve Scherf et al.
# Submitted via: EasyCDDAExtractor 12.0.3.1
#
DISCID=9610df0c
DTITLE=Petit-Pays - Le Son d'Amour
DYEAR=1998
DGENRE=Country
TTITLE0=Mon Amour
TTITLE1=Politik
TTITLE2=Londo (Soukouss)
TTITLE3=Ndolo Désiré
TTITLE4=Amour Imbécile
TTITLE5=Bessombe Na Missima
TTITLE6=Abat Les Jaloux
TTITLE7=J'Aime L'Ennemi
TTITLE8=Turbo Rhythm
TTITLE9=Mussima
TTITLE10=Ewusu (Rumba)
TTITLE11=Londo (Makossa)
EXTD=
EXTT0=
EXTT1=
EXTT2=
EXTT3=
EXTT4=
EXTT5=
EXTT6=
EXTT7=
EXTT8=
EXTT9=
EXTT10=
EXTT11=
PLAYORDER=
